<svg aria-hidden="true" style="width:0;height:0;position:absolute;overflow:hidden" xmlns="http://www.w3.org/2000/svg"><defs><symbol id="icon-magnifying-glass-svgrepo-com" viewBox="0 0 32 32"><path d="M21.37 3.662c-4.882-4.882-12.827-4.882-17.709 0-4.881 4.883-4.881 12.827 0 17.71 4.347 4.346 11.118 4.812 15.996 1.418.103.486.338.949.715 1.327l7.109 7.109a2.644 2.644 0 0 0 3.741 0 2.642 2.642 0 0 0 0-3.741l-7.109-7.111a2.637 2.637 0 0 0-1.326-.713c3.396-4.88 2.93-11.649-1.418-15.998zm-2.245 15.465c-3.645 3.645-9.576 3.645-13.22 0-3.642-3.645-3.642-9.575 0-13.22 3.643-3.643 9.575-3.643 13.22 0 3.645 3.645 3.645 9.575 0 13.22z"/></symbol></defs></svg>