<svg aria-hidden="true" style="position: absolute; width: 0; height: 0; overflow: hidden;" version="1.1" xmlns="http://www.w3.org/2000/svg" xmlns:xlink="http://www.w3.org/1999/xlink">
<defs>
<symbol id="icon-magnifying-glass-svgrepo-com" viewBox="0 0 32 32">
<path d="M21.37 3.662c-4.882-4.882-12.827-4.882-17.709 0-4.881 4.883-4.881 12.827 0 17.71 4.347 4.346 11.118 4.812 15.996 1.418 0.103 0.486 0.338 0.949 0.715 1.327l7.109 7.109c1.036 1.034 2.71 1.034 3.741 0 1.035-1.035 1.035-2.709 0-3.741l-7.109-7.111c-0.376-0.375-0.84-0.611-1.326-0.713 3.396-4.88 2.93-11.649-1.418-15.998zM19.125 19.127c-3.645 3.645-9.576 3.645-13.22 0-3.642-3.645-3.642-9.575 0-13.22 3.643-3.643 9.575-3.643 13.22 0 3.645 3.645 3.645 9.575 0 13.22z"></path>
</symbol>
</defs>
</svg>
